<?xml version="1.0" encoding="utf-8"?>
<!-- Generator: Adobe Illustrator 21.1.0, SVG Export Plug-In . SVG Version: 6.00 Build 0)  -->
<svg version="1.1" id="Ebene_1" xmlns="http://www.w3.org/2000/svg" xmlns:xlink="http://www.w3.org/1999/xlink" x="0px" y="0px"
	 viewBox="0 0 185 185" style="enable-background:new 0 0 185 185;" xml:space="preserve">
<style type="text/css">
	.st0{fill:#FFFFFF;}
	.st1{font-family:'MyanmarText';}
	.st2{font-size:72px;}
	.st3{font-size:40px;}
	.st4{fill:#0000FF;}
	.st5{fill:#00FF00;}
	.st6{fill:#FF00FF;}
</style>
<rect x="12" y="14" width="59" height="147"/>
<text transform="matrix(1 0 0 1 8.5 79.5)"><tspan x="0" y="0" class="st0 st1 st2">M</tspan><tspan x="64.7" y="0" class="st1 st3">usic</tspan></text>
<text transform="matrix(1 0 0 1 15 137)"><tspan x="0" y="0" class="st0 st1 st2">Q</tspan><tspan x="54.3" y="0" class="st1 st3">uiz</tspan></text>
<g>
	<path d="M148.4,104.8c-1-0.6-2.1-0.5-3.1,0c0,0-0.1,0.1-0.1,0.1l-13.6,11.5H121c-0.6,0-1,0.4-1,1v19c0,0.3,0.1,0.5,0.3,0.7
		c0.2,0.2,0.4,0.3,0.7,0.3l10.6,0l13.5,12.4c0.1,0,0.1,0.1,0.2,0.1c0.5,0.3,1,0.4,1.6,0.4c0.5,0,1-0.1,1.5-0.4
		c1-0.6,1.6-1.6,1.6-2.8v-39.7C150,106.4,149.4,105.3,148.4,104.8z M148,147.2c0,0.4-0.2,0.8-0.6,1c-0.2,0.1-0.5,0.3-1,0L133,135.9
		v-4.6c0-0.6-0.4-1-1-1s-1,0.4-1,1v4l-9,0v-17h9v4c0,0.6,0.4,1,1,1s1-0.4,1-1v-4.5l13.4-11.3c0.5-0.2,0.9-0.1,1,0
		c0.4,0.2,0.6,0.6,0.6,1V147.2z"/>
	<path class="st4" d="M172,126.9c0-8.3-5.3-15.8-13.2-18.4c-0.5-0.2-1.1,0.1-1.3,0.6c-0.2,0.5,0.1,1.1,0.6,1.3
		c7.1,2.4,11.9,9.1,11.9,16.6c0,7.5-4.8,14.1-11.8,16.6c-0.5,0.2-0.8,0.7-0.6,1.3c0.1,0.4,0.5,0.7,0.9,0.7c0.1,0,0.2,0,0.3-0.1
		C166.7,142.6,172,135.2,172,126.9z"/>
	<path class="st5" d="M164.5,103.4c-0.5-0.2-1.1,0-1.3,0.5c-0.2,0.5,0,1.1,0.5,1.3c8.7,3.7,14.3,12.2,14.3,21.6
		c0,9.8-5.9,18.4-15,21.9c-0.5,0.2-0.8,0.8-0.6,1.3c0.2,0.4,0.5,0.6,0.9,0.6c0.1,0,0.2,0,0.4-0.1c9.9-3.8,16.3-13.2,16.3-23.8
		C180,116.6,173.9,107.4,164.5,103.4z"/>
	<path class="st6" d="M163,126.9c0-6-4-11.3-9.7-13c-0.5-0.2-1.1,0.2-1.2,0.7c-0.2,0.5,0.2,1.1,0.7,1.2c4.9,1.4,8.3,6,8.3,11
		s-3.4,9.6-8.3,11c-0.5,0.2-0.8,0.7-0.7,1.2c0.1,0.4,0.5,0.7,1,0.7c0.1,0,0.2,0,0.3,0C159,138.2,163,132.8,163,126.9z"/>
</g>
</svg>
